<?xml version="1.0" standalone="no"?>
<!DOCTYPE svg PUBLIC "-//W3C//DTD SVG 20010904//EN"
 "http://www.w3.org/TR/2001/REC-SVG-20010904/DTD/svg10.dtd">
<svg version="1.0" xmlns="http://www.w3.org/2000/svg"
 width="300.000000pt" height="168.000000pt" viewBox="0 0 300.000000 168.000000"
 preserveAspectRatio="xMidYMid meet">
<metadata>
Created by potrace 1.16, written by Peter Selinger 2001-2019
</metadata>
<g transform="translate(0.000000,168.000000) scale(0.100000,-0.100000)"
fill="#000000" stroke="none">
<path d="M0 840 l0 -840 40 0 c27 0 40 4 40 13 0 18 56 132 89 181 32 48 51
91 51 113 0 9 14 28 30 43 29 26 70 118 70 158 0 10 6 24 12 30 10 10 10 15
-2 22 -11 7 -15 29 -14 91 l0 82 42 38 c22 21 37 41 31 44 -15 10 -10 24 9 24
102 4 125 22 137 103 8 55 49 108 68 89 6 -6 21 -11 33 -11 12 0 33 -12 46
-27 23 -28 54 -46 94 -58 12 -3 26 -17 32 -30 10 -22 18 -25 62 -25 40 0 56
-5 75 -24 36 -36 56 -27 76 35 21 64 74 119 94 97 6 -7 51 -59 99 -115 79 -93
90 -102 115 -97 22 5 33 0 54 -25 23 -28 32 -31 80 -31 89 0 114 8 115 37 0
14 6 32 15 40 23 23 57 1 57 -37 0 -45 24 -36 39 14 l13 44 51 -5 c52 -5 52
-5 70 31 9 20 17 47 17 59 1 46 25 62 98 62 l67 0 18 38 c14 27 25 37 42 37
33 0 42 -17 44 -85 3 -81 16 -120 47 -134 32 -14 49 -3 58 39 3 17 12 30 20
30 22 0 26 25 5 39 -11 6 -17 17 -13 23 4 6 3 8 -3 5 -14 -9 -50 19 -39 30 5
4 11 2 13 -4 3 -7 14 -13 26 -13 l21 0 -22 16 c-12 8 -30 13 -40 10 -20 -7
-65 44 -89 101 -14 35 -14 36 2 23 13 -11 18 -11 24 -2 4 7 15 10 23 7 10 -4
17 1 21 15 7 26 27 17 27 -11 0 -34 23 -48 69 -42 33 5 41 9 38 22 -3 9 -10
30 -15 48 -8 25 -7 31 3 27 7 -3 16 3 20 13 7 16 8 15 14 -6 11 -40 28 -35 37
11 l8 43 4 -41 c3 -42 43 -96 59 -80 4 4 1 11 -7 16 -13 8 -12 12 5 24 29 22
36 19 29 -9 -6 -24 2 -31 29 -26 4 1 10 -6 14 -15 8 -21 23 1 23 34 0 23 14
30 25 11 4 -5 -1 -19 -10 -29 -10 -11 -15 -26 -11 -36 5 -14 16 -15 70 -9 41
4 66 3 70 -4 10 -15 -9 -45 -38 -65 -22 -14 -25 -14 -20 -1 5 11 2 13 -10 9
-9 -3 -16 -11 -16 -16 0 -6 -7 -7 -16 -4 -8 3 -12 2 -9 -4 3 -6 13 -10 21 -10
10 0 5 -12 -15 -41 -17 -22 -28 -46 -25 -53 3 -7 0 -25 -6 -40 -6 -17 -6 -25
0 -21 6 3 10 1 10 -4 0 -6 -7 -11 -15 -11 -8 0 -15 4 -15 9 0 5 -3 17 -7 27
-4 12 -3 15 5 10 8 -5 12 0 12 13 0 11 -4 23 -10 26 -5 3 -10 14 -10 23 0 15
2 15 10 2 7 -12 9 -10 8 7 -2 20 -28 22 -28 1 0 -5 -7 -2 -16 6 -8 9 -22 16
-29 16 -21 0 -28 19 -15 35 7 8 15 13 19 11 3 -2 7 7 7 21 l2 25 -16 -24 c-25
-36 -52 -63 -52 -52 0 6 -7 11 -15 11 -23 0 -18 -14 8 -21 l22 -6 -22 -15
c-13 -9 -23 -22 -23 -29 0 -6 -6 -18 -12 -24 -17 -17 -10 -77 13 -119 10 -18
19 -46 19 -62 0 -24 26 -61 37 -53 1 1 11 2 21 2 15 -1 15 -2 -2 -15 -11 -8
-28 -13 -38 -9 -10 3 -18 1 -18 -5 0 -6 -9 -11 -20 -11 -11 0 -20 -4 -20 -9 0
-9 58 -21 108 -21 l32 0 0 -58 c0 -46 -4 -63 -19 -76 -15 -14 -18 -24 -11 -40
4 -13 8 -31 7 -42 -1 -12 5 -19 18 -19 19 0 20 8 25 185 4 121 7 156 9 100 2
-47 5 -77 8 -68 4 16 75 38 121 38 10 0 41 6 70 14 29 7 55 10 58 5 2 -4 10
-6 17 -4 7 3 18 1 26 -4 16 -11 6 -51 -14 -51 -8 0 -19 -9 -25 -20 -11 -20
-45 -28 -52 -11 -1 4 -29 11 -60 14 -52 6 -58 5 -76 -18 -11 -14 -29 -25 -41
-25 -20 0 -21 -5 -21 -87 0 -49 4 -93 8 -100 14 -23 81 -43 140 -43 32 0 63
-5 68 -10 6 -6 68 -12 138 -13 l127 -3 -2 398 c-1 369 -7 459 -23 358 -3 -23
-13 -43 -20 -46 -8 -3 -17 -22 -22 -42 l-7 -37 -8 35 c-4 19 -5 38 -2 43 3 5
-3 7 -13 5 -13 -2 -18 2 -16 14 2 11 -5 18 -19 20 -15 2 -23 11 -24 25 -2 28
-1 27 -45 39 -22 6 -43 22 -57 43 -39 57 -27 69 23 22 16 -16 41 -32 55 -36
13 -4 27 -13 32 -19 5 -8 9 -7 15 2 7 11 17 10 51 -4 32 -12 45 -14 54 -5 8 8
7 11 -5 11 -8 0 -21 7 -28 15 -11 13 -8 15 18 15 17 0 33 -6 35 -12 3 -7 6
121 6 285 l0 297 -666 -2 -667 -3 -9 -30 c-10 -32 -18 -448 -10 -502 6 -36 32
-52 45 -28 5 8 19 15 30 15 12 0 30 8 40 17 18 16 22 16 71 -2 29 -10 56 -21
60 -25 26 -24 -44 -89 -80 -75 -9 3 -26 -1 -37 -9 -20 -13 -26 -11 -61 15 -42
32 -115 41 -115 15 0 -16 -89 -33 -99 -18 -3 5 -18 11 -33 14 -24 4 -28 2 -28
-17 0 -27 -24 -49 -45 -41 -8 3 -15 18 -15 33 -1 34 -18 59 -45 65 -11 2 -19
10 -17 17 2 9 -8 10 -35 5 -21 -3 -42 -10 -47 -14 -10 -10 31 -33 43 -25 5 3
7 -4 4 -15 -3 -11 -9 -23 -14 -26 -5 -3 -9 -16 -9 -30 0 -21 -4 -25 -22 -22
-13 2 -24 11 -27 23 -2 11 -14 31 -27 44 l-23 23 -12 -26 c-13 -27 -49 -43
-69 -31 -5 3 -17 20 -26 36 -18 35 -9 53 32 63 14 4 39 17 55 28 26 19 29 28
29 75 0 38 4 55 15 59 23 9 29 31 40 170 6 68 4 96 -6 115 -7 13 -15 42 -18
64 l-6 40 -597 3 -598 2 0 -840z"/>
<path d="M1287 1612 c-16 -40 -27 -86 -27 -114 0 -52 8 -80 20 -73 5 3 11 -4
15 -15 4 -11 11 -17 17 -14 6 4 8 -1 6 -12 -2 -11 -13 -20 -25 -22 -20 -3 -21
-7 -16 -80 3 -43 12 -84 19 -93 8 -8 14 -22 14 -30 1 -18 68 -69 92 -69 31 0
58 19 58 41 0 11 -4 18 -9 15 -13 -8 -33 20 -29 41 5 28 41 22 48 -7 5 -21 14
-26 55 -32 34 -5 54 -3 62 5 7 7 14 75 18 178 3 91 10 191 14 221 5 40 4 61
-6 74 -7 10 -13 26 -13 36 0 17 -12 18 -142 18 l-143 0 -28 -68z"/>
<path d="M1982 329 c-36 -14 -214 -38 -367 -49 -277 -20 -987 -5 -1005 20 -3
4 -21 10 -40 14 l-35 6 39 -19 c58 -28 201 -43 496 -50 272 -6 628 7 790 30
88 12 160 35 160 50 0 11 -8 11 -38 -2z"/>
<path d="M270 242 c0 -10 -6 -26 -13 -37 -8 -11 -16 -29 -19 -40 -4 -11 -18
-51 -32 -90 -14 -38 -26 -71 -26 -72 0 -2 45 -3 100 -3 116 0 108 -12 89 129
-9 70 -39 163 -39 124 0 -7 -9 -13 -20 -13 -11 0 -20 5 -20 10 0 6 -4 10 -10
10 -5 0 -10 -8 -10 -18z"/>
<path d="M1825 249 c-98 -11 -443 -29 -599 -30 -134 -1 -137 -6 -13 -29 70
-13 87 -20 87 -35 0 -8 5 -17 12 -21 7 -4 8 -3 4 4 -4 7 -1 12 8 12 8 0 16 -5
18 -11 2 -6 22 -15 43 -20 l40 -8 -47 2 c-53 1 -69 -7 -41 -21 10 -5 58 -6
113 -2 80 6 103 11 145 36 28 17 58 33 68 37 27 10 8 -18 -33 -48 l-34 -25
164 6 c246 10 284 18 127 28 -70 4 -130 12 -133 17 -3 5 13 9 36 9 54 0 206
29 247 46 38 17 46 18 37 2 -4 -7 -3 -8 4 -4 21 13 -1 41 -30 37 -4 0 -23 6
-42 14 -38 16 -72 17 -181 4z"/>
</g>
</svg>
